<?xml version="1.0" encoding="UTF-8"?>
<svg id="Layer_1" data-name="Layer 1" xmlns="http://www.w3.org/2000/svg" xmlns:xlink="http://www.w3.org/1999/xlink" viewBox="0 0 504.15 613.78">
  <defs>
    <style>
      .cls-1 {
        fill: url(#linear-gradient-7);
      }

      .cls-2 {
        fill: url(#linear-gradient-5);
      }

      .cls-3 {
        fill: url(#linear-gradient-6);
      }

      .cls-4 {
        fill: url(#linear-gradient-4);
      }

      .cls-5 {
        fill: url(#linear-gradient-3);
      }

      .cls-6 {
        fill: url(#linear-gradient-2);
      }

      .cls-7 {
        fill: url(#linear-gradient);
      }
    </style>
    <linearGradient id="linear-gradient" x1="191.75" y1="318.05" x2="271.97" y2="318.05" gradientUnits="userSpaceOnUse">
      <stop offset="0" stop-color="#000"/>
      <stop offset="0" stop-color="#fff"/>
    </linearGradient>
    <linearGradient id="linear-gradient-2" x1="75.61" y1="410.3" x2="504.15" y2="410.3" xlink:href="#linear-gradient"/>
    <linearGradient id="linear-gradient-3" x1="0" y1="187.41" x2="244.43" y2="187.41" xlink:href="#linear-gradient"/>
    <linearGradient id="linear-gradient-4" x1="232.42" y1="231.2" x2="482" y2="231.2" xlink:href="#linear-gradient"/>
    <linearGradient id="linear-gradient-5" x1="182.89" y1="292.49" x2="284.11" y2="292.49" xlink:href="#linear-gradient"/>
    <linearGradient id="linear-gradient-6" x1="294.63" y1="289.23" x2="348.3" y2="289.23" xlink:href="#linear-gradient"/>
    <linearGradient id="linear-gradient-7" x1="187.43" y1="208.76" x2="207.72" y2="208.76" xlink:href="#linear-gradient"/>
  </defs>
  <path class="cls-7" d="M271.97,311.36c-12.99-.28-26.68-.04-39.56,2.1-5.78.96-12.42-.99-17.71,2.42-4.95-.58-13.23-.42-18.52.81-.32.07-.5.75-.81.81-1.08.2-2.47-.13-3.62,0,1.09,1.49,1.43,6.08,2.82,6.46,1.35.37,2.52-.16,3.62-.81v1.61c1.7-.13,3.57.19,5.23,0,7.17-.82,29.46-4.71,34.62-3.23.79.23,6.96-1.13,8.86-.81,3.75.64,11.59-.03,16.1-.81.53-.09,1.29-.17,2.19-.23.51-1.17,1.56-2.09,3.14-2.21.18-1.6,1.19-3.08,3.02-3.42-.08-.94.13-1.91.62-2.7ZM233.62,316.69v3.23l-.81-1.61-1.61,1.61-2.01-.81c-1.36,1.52-3.99.57-6.04.81l2.01-3.23,10.06-.81-1.61.81Z"/>
  <path class="cls-6" d="M503.35,366.75l-1.61,1.61v-4.84l1.61,2.42-.81-4.44,1.61-2.42-1.61-1.61c1.75-4.49.74-12.83-1.61-16.95-.32-.56-1.25-1.04-1.61-1.61-.23-.36-.58-2.09-.81-2.42-.69-1.04-10.13-10.68-10.87-10.9-.53-.16-1.37.09-2.01,0-.37-3.13-5.09-5.02-7.65-6.46-.54-.3-1.04-1.2-1.61-1.61l-1.21.81v-1.61c-1.86,1.53-2.06-.52-3.62-1.61-5.82-4.07-12.43-5-18.52-7.27-1.2-.45-2.27-1.04-3.62-.81v-2.42l2.42,1.61,4.83-10.49h1.61c.14-2.18,2.39-2.83,1.61-5.65l2.42-1.21-.81-2.42,2.01-2.02,1.21.81,1.61-2.83-.81-1.61,2.01-2.02,3.22.81,2.01-1.61v1.61l3.62-.81c.64.48,4.21.31,5.64,0,.29-.06,1.91-1.38,2.42-1.61.4-.19,1.08.15,1.61,0,.38-.11,5.37-4.48,6.04-5.25.13-.15-.13-.66,0-.81,2.22-2.52,3.06-2.27,4.03-5.65.13-.45,1.48-1.17,1.61-1.61.23-.79-.4-1.76.81-2.42-1.86-1.35-.11-1.92,0-2.42.49-2.19-.81-3.82-.81-4.04,0-.14,1.27-.81.81-2.42-3.68-8.16-8.5-14.7-15.7-19.78-2.13-1.5-3.58-2.1-4.43-3.63-1.84-3.31-10.68-7.22-14.09-8.48-.8-.29-2.01.33-2.82-1.21l.81-1.21c-7.6-3.41-16.27-7.09-22.95-8.88-2.6-.7-5.57-.81-8.05-1.61-1.21-.39-2.19-.64-3.22-.81-1.57-.26-3.58.18-5.23,0l2.42.81-1.21,1.61-2.01-.81v-1.61l-9.26,4.04c-.36,1.04-3.52,4.05-3.62,4.44-.19.68.19,1.73,0,2.42-.13.46-1.55,2.9-1.61,3.23-.33,1.88.76,4.4-.81,5.65,1.22,3.29,2.2,6.92,3.22,10.49.19.67,3.02,2.85,2.42,4.44h1.61v1.61h-1.61c-.31,1.53-2.21,4.04-3.22,5.25-1.34,1.61-8.65,8.13-8.86,8.88-.21.75.13,1.95,0,2.83l-2.01-.81-28.18,29.87-.03-.03c-.14.32-.32.62-.53.89.28.23.39.66.16,1.16-.57,1.2-2.08,2.37-3.61,2.79-.21.21-.44.4-.68.57-.35.32-.83.62-1.34.83-.48,1.89-2.99,2.57-2.41,5.1-3.46-.67-3.72,3.09-6.04,4.84-1.59,1.2-4.91,3.21-6.04,5.25-.21.38.15,1.06,0,1.21-.09.09-1.6-.23-2.01.81-1.06-1.25-3.77-1.25-4.83,0l-.81-.81-3.22.81-1.61-1.61c-1.49.64-2.96.47-4.83.81-1.75.31-3.79.11-5.23-.81v1.61c-.69.69-3.07-1.49-3.62-1.61-2.38-.52-5.04.81-5.64.81-.22,0-1.84-1.3-4.03-.81-5.01,1.13-10.37-1.75-16.1,0-1.47.45-7.92-2.69-10.47.81-.18,0-.36-.01-.54-.02-.23.58-.58,1.1-1.06,1.51.37,2.24-.91,4.8-3.83,4.8-.02,0-.04,0-.05,0-.08.65-.29,1.29-.65,1.83,7.44,1.22,17.38-1.2,23.84-.05,5.41.97,15.76-.09,20.93-.81,3.4,2.25,8.7,1.87,13.29,1.21l2.42.4c-1.53,2.39-5.52,3.02-4.83,6.46l-2.01.81-.81-.81c-.6.96-3.42,2.94-3.62,3.63-.41,1.43.14,3.06-2.42,2.83v1.61c-1.53-.31-2.15,1.05-3.22,2.02l.81,1.61c-1.3,1.06-1.93,1.85-1.61,3.63l-.81-3.23c-.88.27-1.85,1.3-2.42,2.02-4.8,6.05-9.57,12.52-14.49,18.57-3.02,3.71-4.75,7.15-7.25,10.49-.84,1.13-2.29,2.1-3.22,3.23l1.61,2.02-2.42-.4-.4,2.83c.74-1.16,1.76-.55,2.82-1.21,1.3-.81,2.73-1.44,3.62-2.02,1.75-1.13,1.34-2.18,3.22-3.23,2.94-1.64,5.32-7.35,8.05-8.88.38-.21,1.06.15,1.21,0,.15-.15-.21-.83,0-1.21,2.52-4.54,9.86-9.22,12.08-14.53.18-.44-.14-1.07,0-1.21h2.42l-.81-1.21c2.12-1.7,3.53-4.94,6.44-4.44l1.21-4.04-.4,2.42h1.61c.7-2.79,2.16-6.99,5.64-6.46,4.68-7.38,19.63-18.28,23.35-25.43,2.03-3.89,8.89-8.39,12.08-12.92.47-.67.34-2.51,2.42-2.02v-3.23l1.21,1.61c1.7-2.13,4.93-3.54,4.43-6.46,3.09.37,3.21-2.53,4.43-3.23,2.48-1.42,5.8-6.28,8.86-8.88.39-.33,1.99-.63,2.82-2.02.36-.61-.71-1.64,1.61-1.21l-1.61-.81c-.91-.81,7.54-4.21,6.44-6.46.65-.09,1.49.16,2.01,0,.52-.15,7.51-7.15,7.65-7.67.21-.75-.13-1.95,0-2.83-1.74.03-2.82.61-2.42-1.61l5.23-.81,2.82.81-.81,2.02,2.82,2.83c.7.36-.16-2.45,1.61-1.61.57.27.69,1.21,2.01.81v1.61l1.21-.81,3.62,2.83h-3.22l-.81,1.21,4.83,1.61.4-2.42.4,4.04,1.21-.81c1.51.85.93,1.86,1.21,2.83.15.51,3.86,2.97,4.83,2.83v1.61c3.82,2.08,6.34,4.35,10.87,5.65.2.06,2.37,1.88,3.22,2.42,3.49,2.24-.8,4.23-2.01,6.05-1.85,2.78-3.87,7.37-5.64,10.49-3.09,5.48-6.11,11.81-9.66,16.95l.81.81c-3.88,3.61-5.32,9.13-8.05,13.72-3.61,6.07-9.4,12.27-10.47,18.97-2.95.07-3.56,4.5-4.83,6.86-2.31,4.26-5.81,8.23-8.05,12.92-1.32,2.77-3.18,5.1-4.03,8.07-.08.29-2.13,2.31-2.42,3.23l.81,2.83-6.44.81v1.61c-2.47-1.22-6.71-1.66-8.45.81-2.53-1.39-6.16.3-8.86.81-.95.18-2.19-.12-3.22,0l-.4,1.61-.81-1.61c-1.22-.44-1.84.81-2.01.81-1.82,0-6.15-.48-8.86,0-1.63.29-1.58,1.21-4.03.81-1.92-.32-4.41.23-6.44,0l-2.01,1.61,4.83.81c-2.22.17-4.67-.24-6.84,0-.29.03-.5.76-.81.81-.72.11-3.83.55-3.62-.81l4.03-1.61h-6.44v2.42l-.81-1.61c-1.43.13-3.04-.19-4.43,0-2.08.28-10.7,2.82-12.08,2.42-.33-.1-.54-.8-.81-.81l-2.42,1.61c-2.06-.63-7.62-1.99-9.66-1.61-.72.13-1.63,1.81-3.62,0l-.4,1.61-.81-.81c-4.72,1.33-12.77-2.14-16.91,1.61l-.81-.81-2.01.81v-1.61h-1.61l-.81,1.61-.4-1.61c-3.48.4-7.96-.55-11.27,0-.31.05-.54.81-.81.81l-.81-.81-2.01.81-.4-1.61-.81.81c-1.59.4-2.52-1.25-4.03-.81-3.45,1.02-10.43-1.55-14.49-.81-3.47.64-7.29.58-11.27,0-.3-.04-.49-.73-.81-.81-2.78-.65-3.19,1.29-5.23,2.42v-1.61l-4.03.81v-2.42c-1.95-.16-4.14.23-6.04,0-2.18-.27-4.69-.4-6.44-.81-2.75-.64-2.91,1.47-5.23,1.61l1.61-2.42c-1.42-.14-3.06.2-4.43,0-7.31-1.08-13.87-4.05-19.73-2.83l-2.42-.4-.4,1.61-2.82-.81,1.61-1.61-11.27-2.42v1.61h-2.42l1.61-.81v-1.61l-6.84-1.61-.4,2.42-2.01-.81-2.42.81-4.43-2.42-.81,1.61-.81-3.23,6.44,1.61v1.61l3.22-2.42-8.45-1.61c-7.1-4.23-21.04-7.14-25.36-14.93-.21-.38.15-1.06,0-1.21-1.84.28-3.39-.29-3.22-2.42l2.42,1.61c-.19-2.32-.03-6.1,2.01-7.27.38-.21,1.06.15,1.21,0,.17-.17.09-3.09,2.42-2.42v-1.61c3.11.04,5.64-1.71,8.45-3.23.28-.15.96.19,1.61-.81l-.4-3.23,2.01,2.42c1.25-.17,2.89.25,4.03,0,.7-.15,3.1-2.05,4.03-2.42,4.48-1.78,9.66-2.04,13.69-4.84l5.23-.81c.21-1.36-2.91-.91-3.62-.81-4.01.6-4.16,2.1-8.86.81-.86-.24-2.59,1.86-3.62.4l.81-2.83,4.03,1.61-.81-3.23,3.62-1.61.81.81,1.61-.81.81.81.81-.81.81.81,2.82.4c-1.24,2.06-2.04-.1-3.62.4-.32.1-.48.71-.81.81-.73.23-1.74-.42-2.42.81l-.4-1.61-2.42.81,1.61.81-.81,2.42,3.62-1.61,1.21.81v-1.61l2.82.81,2.82-2.02-1.61-3.63,2.42.81v-2.42l-3.22.81v1.61c-2.18-.78-5.14-.58-7.65,0-7.89,1.83-15.81,5.62-24.15,8.07-.36.11-5.41,2.76-6.44,3.23-1.54.7-4.33,2.26-5.64,3.23-2.07,1.54-2.18,3.01-4.03,4.04-3.82,2.13-1.73,5.45-4.43,7.67l.81,2.42c-1.86,1.34-.09,1.95,0,2.42.31,1.53.4,3.29.81,4.84,2.56,3.78,5.65,6.57,9.26,9.28,3.16,2.38,6.64,4.51,10.47,6.46.93.47,2.27,1.57,2.42,1.61,9.16,2.71,18.48,5.91,27.38,8.07,2.78.67,21.38,4.37,22.54,4.04.33-.1.54-.81.81-.81,7.54,3.8,17.64,2.22,25.77,3.23,2.31.29,1.41,1.04,4.83,0,2.1-.64,2.7,2.23,4.83,1.61,1.19-.34,2.89-.32,4.83,0,7.06,1.16,15.41,2.48,22.54.81,2.25-.53,6.53,1.33,9.66.81,3.81-.64,7.74,2.78,10.47-.81l5.23-.81-2.01,1.61-2.82.81c2.2-.19,4.7.27,6.84,0,4.81-.59,9.75-.85,14.49,0,5.85,1.05,13.16-1.63,18.52,0,.76.23,11.89-1.5,13.69-1.61,3.43-.21,7.78.78,10.47-.81l4.03.81c1.44-1.59,2.96-.98,4.03-.81,4.71.79,10.19-1.26,14.49-1.61,3.61-.3,6.18.19,9.66-.81.4-.11,1.08-1.27,1.61-1.61l.4,1.61,4.43-1.61,1.61.81.4-1.61,2.82.81c1.86-1.45,3.58-1.25,5.64-1.61,1.32-.24,3.03.16,4.43,0l-.81-2.42h-1.61v-1.61h-1.21l.4,1.61-4.03-.81-1.21,2.42-.81-.81-1.61,1.61-3.62-.81c-.62-2.98,2.53-.67,3.62-2.42l2.82.81v-1.61c2.18.06,3.58-1.21,6.04-.81.31.05.52.79.81.81.15,0,1.41-1.44,2.82-.81l-.81,2.02.81.81-1.61,1.21c1.48.61,2.52-.75,2.82-.81,2.68-.5,4.39-.39,6.44-.81,6.63-1.34,12.89-3.11,19.32-4.84,2.9-.78,5.61-1.58,8.45-2.42v-1.61c4.83-.72,9.38-2.68,14.09-4.04,2.14-.62,5.1-5.59,7.65-5.65.78-1.94,2.08-4.01,3.22-6.05.31-.56,1.49-1.2,1.61-1.61.23-.79-.4-1.76.81-2.42-1.06-1.9-.09-1.92,0-2.42.36-2.11-.66-2.61-.81-3.23-.17-.72.18-1.74,0-2.42-.27-.99-2.69-4.73-3.62-5.25-.38-.21-1.05.15-1.21,0-.35-.35.37-1.9-2.01-3.23-1.17-.66-3.35-3.15-4.83-4.04-1.56-.93-4.78-2.48-6.44-3.23-.48-.22-2.41.23-2.82-1.21-.6-2.11,2.41-2.94,1.61-5.25h1.61c-.46-2.82,3-4.24,2.42-7.27h1.61l-.81-3.23c2.51,1.58,1.13.35,1.61-.4.8-1.28,1.83-1.37,3.22-1.21l-2.42,2.42,10.06,2.42c2.47,2.59,6.77,2.59,9.66,4.84l2.82-.81c.75,3.44,6.31,5.15,9.26,7.27,5.54,3.97,13.28,11.56,15.7,18.16.25.68-.42,1.77.81,2.42v8.88c-.91.41-.66,1.37-.81,1.61-.78,1.31-3.32,2.76-4.03,4.04-.21.38.15,1.06,0,1.21-.15.15-.83-.21-1.21,0-2.79,1.56-6.68,7.62-9.66,9.69-16.29,9.61-32.82,17.06-50.73,20.99-13.81,3.03-28.81,5.9-41.87,8.07-3.94.66-8.24,1.04-12.08,1.61-7.81,1.18-15.38.53-22.54,1.61-.3.05-.51.78-.81.81-3.91.41-8.09-.57-11.27,1.61l-1.61-1.61c-3.53,1.54-7.82,1-11.27,1.61-16.04,2.85-42.88-3.36-57.97.81-.71.19-7.86-1.92-9.66-1.61-.89.15.21.73-1.61,0-.35-.14-.82.05-1.21,0v1.61h-3.22v-1.61c-2.14.24-4.8-.34-6.84,0-1.82.3-3.31-.59-4.83.81-4.74-2.16-9.89-1.53-15.3-2.42-1.1-.18-2.46.12-3.62,0l-1.61,1.61c-.15-.71,1.46-1.24.4-1.61-.87-.31-1.52-.79-1.61-.81-1.38-.28-3.33.2-4.83,0-2.97-.4-7.2-2.16-10.47-1.61-2.91.49-5.07-.43-8.05-.81-2.93-.37-5.07.52-7.65.81v-1.61l-2.82.81c-1.44-1.12-4.15-2.12-5.64-2.42-.82-.17-1.92.11-2.82,0l.4,1.61h-1.21v-1.61c-2.41,0-4.81-1.49-6.84-2.42l-3.22.81c-5.04-3.66-12.26-3.91-18.52-4.84-.65-.1-2.66-2.06-4.03,0l-2.01-1.21.81-2.02c-1.87,1.61-1.87-.53-2.82-.81-2.68-.77-5.27-.82-8.05-1.61-8.72-2.5-20.33-7.05-28.18-12.11-.71-.46-1.31-1.57-2.01-2.02-.86-.55-1.13.79-2.42.4,1.58-2.51.35-1.14-.4-1.61-2.12-1.34-3.52-4.73-6.84-4.04.05-2.54-2.55-4.88-4.03-6.86-.55-.74-3.11-3.66-3.22-4.04-.14-.51.15-1.13,0-1.61-.11-.33-.75-.51-.81-.81-.36-2.03-.3-6.59.81-8.07l-.81-2.83h1.61l-.81-2.42h2.42l-.81-1.21.81-2.83h-1.21c-1.03-.12.59-1.51.81-1.61,2.08-.99.38,2.79,2.01,2.42l.81-3.23h2.42c2.27-4.81,9.36-8.63,14.09-11.3,6.1-3.45,11.83-6.5,18.52-8.07l1.21-2.42c1.87,1.59,2.36-.17,4.43,0l-.4-1.61,2.82.81c.41-1.04,1.92-.72,2.01-.81.1-.1-.26-1.64,1.21-2.42l2.01,1.61v-2.42l-1.61-1.61h3.22l1.21,2.42c1.22.18,2.06-.4,3.22-.81,1.06-.37-.56-.91-.4-1.61l3.62.81,1.61-.81c1.25,1.7,2.98-.66,5.23,0v-1.61l1.21.81.4-1.61,4.43.81.81-.81,5.23-.81c.25-2.68-1.64-2.01-2.82-2.42-.46-.16-.69-1.24-2.01-.81l-1.21,2.42c-1.51-.85-.93-1.86-1.21-2.83-.15-.52-1.67-1.13-1.61-2.02h2.42v-2.42c-1.16.12-2.52-.18-3.62,0-8.71,1.42-18.71,6.03-27.38,8.88-3.9,1.28-8.22,2.98-12.08,4.04-5.97,1.63-19.1,11.04-24.15,14.53-5.06,3.49-6.96,4.99-10.87,10.09-1.6,2.08-1.61,1.21-2.42,4.04-.13.45-1.48,1.17-1.61,1.61-.14.51.15,1.13,0,1.61-.11.33-.74.51-.81.81-.2.95.18,2.24,0,3.23-.05.31-.77.51-.81.81-.47,3.84-.1,7.28-.81,10.49-.86,3.88,1.26,4.43,1.61,5.65.15.51-1.45,5.75-1.61,6.46-.38,1.72.62,5.32.81,6.46.99,5.96.01,11.28.81,16.95,1.36,9.79,3.47,20.4,6.44,29.87,3.26,10.37,7.31,21.38,12.88,30.68,1.37,2.29,3.14,5.12,4.03,7.27.18.44-.14,1.07,0,1.21l3.22.81v4.04l1.21-.81c1.4.96,1.33,2.01,1.21,3.63l4.83,8.48,1.61-2.42c-.71,3.28,2.02,4.41,3.22,6.86l-.81.81c5.36,5.53,8.23,14.01,14.09,18.16,1.36.96,2.31,2.56,4.03,3.23l1.21-.81-.81,2.02c1.86,1.58,2.98,4.17,5.64,3.63,1.34,3.87,7.5,8.19,11.27,8.88v1.61h2.42v2.42c1.8-.26,2.69,1.72,4.03,2.83-2.83,3.2-4.98,6.45-6.44,10.49-.53,1.47-.48,2.02-.81,3.23-.26.94-2.34,2.97-2.42,3.23-.42,1.55-.41,4.64-.81,6.46-.49,2.29-2.09,5.44-1.61,8.07.06.31.77.51.81.81.25,2.03-.29,4.47,0,6.46.04.3.74.49.81.81.31,1.54.4,3.29.81,4.84,6.43,9.8,15.35,16.64,26.17,21.39,19.64,8.98,41.2,14.33,61.19,17.76,4.24.73,8.68.77,12.88,1.61,2.24.45,5.83,1.94,8.05,0,2.65,2.54,6.3,1.34,9.66,1.61,11.65.96,25.44,2.63,35.43.81,2.77-.51,4.24-.39,6.44,0,1.55.28,3.59-.19,5.23,0v-1.61c2.15,2.03,7.08,2.11,10.06,1.61,2.09-.35,5.49-.41,8.05-2.42,15.56.69,30.87-4.33,45.89-8.07,4.51-1.13,8.39-2.34,12.88-4.04,4.07-1.54,8.64-2.79,12.88-4.84,5.92-2.87,12.46-7.15,17.71-11.3,5.44-4.3,8.72-7.58,11.67-14.13.52-1.15.54-1.76.81-2.42.83-2.07,2.17-2.57,1.61-5.65-.56-3.08.44-4.06,0-6.46-.64-3.49-1.73-7.94-2.42-10.49-1.34-5.03-3.26-7.76-5.64-12.11-.58-1.07-1.03-2.97-1.61-4.04-.62-1.13-2.28-1.41-1.61-3.63l4.03-1.61v-1.61c5.56-4.05,10.61-9.21,15.7-13.72,5.18-4.59,9.44-9.51,14.09-14.93.95-1.11,3.58-3.11,4.03-4.04.9-1.87-2.2-1.01-2.42-1.21l.81-2.42,2.82.81c1.33-1.68,3.21-3.58,4.43-5.25,2.74-3.74,6.18-8.68,8.86-12.92,1.28-2.03,1.52-4.95,4.03-6.46l-.81-2.83c.18-.21,1.51,1.55,2.42-.4l-.81-2.02c2.82-.1,3.71-4.44,4.83-6.86,3.14-6.75,5.92-14.3,8.05-20.99.84-2.62,1.66-5.44,2.42-8.07.13-.45,1.49-1.17,1.61-1.61.33-1.2-.2-3.38,0-4.84.7-5.1,3.19-10.98,4.03-16.15.18-1.11-.12-2.47,0-3.63l-1.61-.81h2.42c-.31-2.51.8-5.86-.81-7.67,1.37-.84-.49-1.8,0-3.63l1.61.4c.6-1.15-.81-2.29-.81-2.42.18-3.27,2.25-3,.81-8.07-.24-.83,1.41-2.16.81-3.63ZM320.17,318.31c-.3-.04-.5-.75-.81-.81-1.52-.28-3.11-.06-4.43.81-.17-3.13,2.22-2,3.62-2.42.32-.1.49-.72.81-.81.79-.22,1.73.41,2.42-.81l.4,3.23,1.61.81c-1.17-.11-2.5.16-3.62,0ZM327.02,317.5l1.61-1.61-2.42-1.61,4.83.81-.81,1.61,1.61-1.61h4.03l-1.21,1.61-.81-.81c-1.61,2.45-4.18,1.47-6.84,1.61ZM343.93,316.69l-9.66,2.42c-.39-2.48.66-1.29,2.01-1.61,1.17-.28,1.65-.95,2.82-.81l-1.61-.81c.41-1.61,1.72-1.82,3.22-1.61l.4,1.61c1.08-1.26,3.38-1.59,2.82.81ZM450.21,263.41v-1.61c-7.42-3.88-14.85-9.78-21.34-15.34-5.11-4.37-9.38-8.73-12.48-14.93l-1.61-5.65,4.03-10.9c2.16.09,3.61-1.25,6.04-.81,7.07,1.29,13.5,2.57,20.13,4.84,2.88.99,6.12,1.94,8.86,3.23,1.45.68,2.52,2.11,4.43,1.61-.46-3.22,2.35-.99,3.22.4.45.72.94,2.09,0,2.42.62.4,1.55,1.89,2.01,2.02,4.28,1.23,8.5,5.33,12.08,8.07,4.92,3.77,7.41,5.16,10.87,10.9,1.87,3.11,3.81,5.94,3.22,9.69-1.36.75-.51,2.14-.81,3.23-.46,1.69-4.94,4.43-4.03,6.86h-1.21l-.4,2.42-1.21-1.61c-.91.61-2.65,3.07-3.22,3.23-.85.24-2.24-.18-3.22,0-.31.06-.51.76-.81.81-2.91.43-4.84-1.29-6.84,0v-1.61c-.65-.08-1.47.15-2.01,0-5.13-1.4-10.02-6.65-15.7-7.27ZM456.65,283.19l1.21-1.21,2.01.81.81-4.04,2.42.81c.25,1.53-.94,2.68-2.42,2.42.63,2.23-.9,2.45-1.61,3.63-.48.8.81,1.66-2.42,1.21,1.72-1.77-.29-2.64,0-3.63ZM224.76,386.52c-1.61-.36-3.55.77-6.04.4-.3-.04-.5-.76-.81-.81-1.09-.17-3.7.75-3.62-.81,1.83.19,4.07-.64,5.23.81l5.23-.81-3.22-1.61h3.62l1.21,2.42,2.42.81c-1.44.2-2.63-.1-4.03-.4ZM242.48,388.54l-.81,3.23-4.03-2.02-2.42.4-1.61-2.83,5.64-.4-2.42,1.61h4.43l4.03-1.61.4,1.61h-3.22ZM295.62,391.77h-4.03l.81-1.61c-1.16.12-2.52-.18-3.62,0-.3.05-.49.73-.81.81-2,.48-3.3-1.13-5.23-.81-.16-1.53,1.8-.6,2.82-.81,1.83-.36,3.47-.58,4.83-.81,1.57-.26,3.58.18,5.23,0l1.61-1.61.81,3.23-3.22-.81.81,2.42ZM443.36,342.53c1.48.88,3.66,3.38,4.83,4.04.38.21,1.06-.15,1.21,0l1.61,5.25-1.61,2.42.81,2.02h-2.42v2.02l-2.42,1.21v1.61c-1.77.21-4.31,1.09-4.03,3.23-6.08.93-12.83,4.24-18.12,7.27l-.81-.81c-2.5,1.03-6.52,2.85-8.86,3.23-1.1.18-2.46-.12-3.62,0l3.22-5.25c-1.99-1.67-2.93,1.55-4.83,1.21l.81,1.21-3.22,2.83,1.61-3.63-.81-1.21h1.61l-.81-1.21,2.01-2.02.4,1.61,2.42-.4,2.42.4c-.4-1.76,1.59-2.39,2.42-3.63,1.29-1.94,2.1-4.73,4.03-6.46l-1.61-.4.81-4.84,2.01,1.61c.58-.71,1.49-1.3,2.01-2.02.87-1.19,1.63-3.59,2.42-4.84,1.59-2.54,4.38-4.53,4.03-7.67h1.61v-1.61c1.52-.59,2.11,1.41,2.82,1.61,2.37.68,5.74,1.84,8.05,3.23ZM106,319.12c1.53-1.18,1.73-.55,3.22-.81.31-.05.52-.79.81-.81.15,0,1.41,1.44,2.82.81v2.42l-1.21-1.61-4.03,2.42-1.21-.81-1.61,1.61c-.19-1.54-.05-2.26,1.21-3.23ZM89.5,370.78c-.67,3.54,3.3,4.17,5.23,5.65.75.57,4.39,3.98,3.62,4.84-2.87-2.08-5.5-5.19-8.86-5.65l-2.82-4.84-1.21,1.61-.81-4.04c2.28-.27,2.71,2.83,4.83,2.42ZM79.83,388.14l2.42-2.02.81,6.86-2.42,2.83-.81-7.67ZM248.11,606.51v1.61l-1.61-.4-2.42.4-1.21-2.42-.4,1.61h-5.64l4.03-.81-.81-2.42,9.66,1.61-1.61.81ZM424.44,549.6c.35,2.38.4,11.46,0,13.72-.05.3-.7.47-.81.81-.15.48.14,1.11,0,1.61-.19.65-3.28,2.98-4.03,4.04-1.92,2.73-7.6,7.43-10.87,9.28-.62.35-.7,1.18-2.01.81l.81,2.02-1.61,2.83-1.61-.4,1.61-2.83c-2.06-.84-2.91,1.41-3.62,1.61-2.34.67-1.73.8-3.22,1.61-1.14.62-2.82.69-3.62,2.02l.81,1.61-2.82,2.02-6.04.81,1.21-2.42c-.99.98-2.69,1.07-4.03,1.61-1.02.41-1.68.53-2.42.81-5.74,2.16-11.21,4.09-16.91,5.65-8.39,2.3-16.41,3.42-24.96,4.84-6.63,1.1-15.26,1.75-23.35,2.42-7.45.62-17.55,1.61-24.96,1.61-5.57,0-10.43-.65-16.1,0-1.66.19-3.54-.13-5.23,0l.81-1.61h-4.03l2.42,1.61h-4.03v-1.61c-.66-.07-1.42.12-2.01,0-.32-.07-.54-.81-.81-.81s-.47.71-.81.81c-1.04.3-8.14-1.45-9.66-1.61-9.46-1-18.17-1.98-27.38-3.23-.26-.04-.45-.63-.81-.81l-2.01,2.42-.4-3.23h-3.62l.81,1.61h-2.42l.81-2.02-1.21-1.21-4.43-.81v1.61h-.81c.21-2.26-2.11-3.39-3.62-1.61-.42-.38-.78-.84-1.21-1.21-1.44-1.23-.29,1.19-1.21,1.21l-.4-2.42c-.64-.09-1.51.17-2.01,0-11.11-3.65-21.47-9.3-32.61-13.72v-1.61c-2.81-1.88-6.3-3.68-9.26-5.65-1.14-.76-3.04-2.73-2.82-4.04l-2.42.81c-.13-2.25.19-4.63,0-6.86-.02-.29-.79-.52-.81-.81-.21-3.07-.55-11.98,0-14.53.06-.29,1.46-2,1.61-2.42.32-.91.47-3.2.81-4.04,1.18-2.96,2.89-4.1,4.03-8.07.13-.46,1.62-1.39,2.01-2.02.59,0,2.62,2.06,3.22,2.42,6.05,3.64,14.83,8.02,21.74,8.88,2.3,2.5,5.14,4.33,8.45,4.84l.81-1.61v2.42c.65.08,1.47-.15,2.01,0,3.62.98,5.37,2.96,8.05,4.04.63.25,1.78-.43,2.42.81l2.42-.81-.4,1.61,4.03-.81v1.61c3.44,1.54,7.09,2.65,11.27,2.42v1.61c6.77.06,14.54,3.44,20.53,2.42l1.61,1.61,1.61-.81c5.33,3.03,11.59,1.54,16.91,2.42.3.05.5.76.81.81,1.49.22,3.97.3,4.83-.81l.4,1.61c1.31.42,1.81-1.1,2.82-.81,1.26.36,9.93,1.77,10.47,1.61,2.2-.63,3.16-.46,5.64,0,1.08.2,2.47-.13,3.62,0l.81-1.61.81,1.61v-1.61h.81v1.61l1.61-1.61.4,1.61c1.96.23,2.84-.05,4.03-1.61l2.42.81c4.31-1.26,9.86-.31,15.3-.81,4.29-.39,10.48-2.4,15.3-3.23,10.2-1.75,22.46-5.74,33.82-8.88.32-.09.49-.73.81-.81.79-.19,1.93.12,2.82,0v-1.61l2.82.81c.41-1.04,1.92-.72,2.01-.81.1-.1-.08-1.92,1.21-2.42l2.42.81c.96-1.07,2.32-1.69,2.01-3.23l2.01.81c1.14-.56,10.87-4.6,10.87-5.25l-.81-.81c.44-.34.78-.94,1.21-1.21,1.42-.9,4.08-1.06,5.64-1.61.47-.17.69-1.23,2.01-.81l-.81-1.21.81-2.02h1.61l-.4,2.42,5.23-3.23-1.61-.81.81-3.23c1.25-.44,1.79.79,2.01.81.15,0,1.41-1.44,2.82-.81l-1.61,1.61h3.22l-1.61.81c-.41,1.33.57,1.48.81,2.02,2.38,5.42,5.66,12.38,6.44,17.76ZM475.97,451.11l.81.81c-1.25,1.8-1.94,4.15-4.83,3.63l1.61-.81,2.42-8.07.81,1.61h1.61l-2.42,2.83ZM493.69,376.84c-1.08,6.33-2.89,13.16-4.03,19.37-.29,1.59-.04,3.14.81,4.44h-1.61v6.05l-2.42,1.21v4.04l.81-3.23,1.61,2.02c-1.31,1.4-.44,3.94-3.22,3.63-1.22,3.06-2.65,5.24-1.61,8.48l-1.61,3.63,1.61.81-2.42.4c-.11.54.16,1.17,0,1.61-.34.96-2.18,3.18-2.42,4.04-3.02,11.12-9.67,20.35-13.69,31.08-3.16,1.66-6.94,7.53-8.05,11.3h-1.61c-1.68,4.71-5.98,8.64-8.05,12.92h-1.61c.21,2.97-4.13,2.08-3.22,5.65-2.16.26-5.37,3.48-5.64,5.65h-2.42v1.61l-2.42,1.21.4,1.21-.4,2.42-1.61-2.42c.31,1.36-.5,1.61-1.21,2.42-9.82,11.22-28.87,21.35-41.87,29.06-5.5,3.26-12.53,4.98-17.71,8.88l-.81-.81c-11.68,4.53-25.53,7.97-37.84,9.69-13.43,1.87-27.73,2.46-41.87,4.04l-1.61-1.61c-.53.1-1.13-.14-1.61,0-4.41,1.27-6.58-.65-10.47,0-4.33.72-9.76-1.48-13.69-.81-2.74.47-3.51-1.33-4.83-1.61-2.63-.57-6.79.42-9.66,0-1.73-.25-4.71-1.84-6.44-2.42-.71-.24-1.74.43-2.42-.81l-1.21,2.42-1.21-2.42-1.61.81c-1.33-2.07-3.5-1.16-4.83-3.23l-1.61.81-.81-.81-1.61,1.61-1.21-2.42-6.44,1.61c.27-2.18-2.43-2.09-.81-4.04-1.54.58-2.35-.67-2.82-.81-.64-.18-2.94,1.51-4.43.81l2.42-1.61c-1.34.22-2.44-.35-3.62-.81-3.85-1.5-8.07-4.08-12.48-4.04v-1.61c-18.26-6.71-35.9-19.06-50.32-32.29-4.05-3.72-8.5-9.62-12.88-12.11-2.99-1.7-4.83-6.09-6.84-9.28-1.21-1.92-2.31-3.58-4.83-3.63.13-2.23-1.29-4.71-2.82-6.46l-2.01.4,1.61-1.61c-.45-.71-2.27-1.9-2.42-2.42-.5-1.74-.45-3.52-2.42-4.84l-1.61-4.44-1.61,2.42-2.42-3.63,1.61-1.21c-2.33.34-1.25-.39-1.61-1.21-.42-.98-1.18-2.25-1.61-3.23-1.95-4.39-4.31-7.96-5.64-12.11-1.9-5.96-5.01-11.93-7.25-17.76l-1.61-.4,1.61-1.21-2.42-1.21v-1.61l1.61-1.61c-.69-.16-1.26,1.47-1.61.4-.55-1.67-1.13-2.96-.81-4.84-.64-.62-.59-1.11-1.61-.81-.99.3-5.43,3.07-5.64,2.83v-4.84l1.61-.4-1.61-2.42.81-.81-.81-1.61.81-.81-1.61-2.02,3.22.81,1.61,3.63-2.42.4,1.61,2.83-1.61,2.83c2.29-.25,2.92-2.4,5.64-1.61l-1.61-3.63.81-3.63-1.61.4-.81-2.02,1.61-1.61v-1.21l-1.61-.4,1.61-.81-1.61-2.83.81-2.42-1.61-2.42.81-2.42-.81-2.83h-1.61v-.81h1.61l-.81-10.49,6.84,6.46c6.77,3.56,13.63,9.34,21.34,10.49v1.61c1.23-.46,2.87,1.45,3.62,1.61,2.25.49,4.65-.3,6.44,2.42l3.62-1.61v1.61c2.31-1.01,3.45,2.15,4.43,2.42.68.19,1.73-.19,2.42,0,.44.12,1.17,1.49,1.61,1.61,3.46.96,6.99,1.55,10.47,2.42,10.35,2.58,20.77,5.44,31.4,7.27,1.22.21,4.14.39,5.64.81.44.12,1.17,1.49,1.61,1.61,2.56.71,9.28.17,12.88.81,9.38,1.67,19.48,1.81,28.99,3.23,2.58.38,4.15.03,6.04-1.61v1.61l4.83-.81v1.61h3.22l.81-1.61.81,1.21c.53-.58,1.94-.55,2.82-.4.37.06,2.05.75,2.42.81,2.92.49,6.23-.75,8.86.81l2.82-1.61v1.61c1.41.63,2.67-.82,2.82-.81.28.02.5.76.81.81,3.1.51,7.24-.4,10.47,0,.24.03.47.61.81.81l.4-1.61.81,1.61c2.84-.35,6.57.48,9.26,0,.28-.05,2.69-1.2,3.22-1.61l1.61,1.61,1.61-.81c1.94,1.1,7.19,1.22,9.66.81.54-.09,4.48-.9,4.83-.81,1.91.53,2.87,1.94,4.83-.81,1.92.7,6.84,1.98,8.86,1.61,1.78-.33,3.51-.59,4.83-.81,1.47-.25,8.13.32,8.45,0v-1.61l5.23,1.61c3.92-1.21,8.6-.88,12.88-1.61,2.86-.49,7.47-.23,11.27-.81,10.7-1.61,20.36-1.74,30.6-4.04,2.54-.57,5.97-.29,8.86-2.42,2.69,1.19,7.95-.14,11.27-.81,6.62-1.33,13.65-3,20.13-4.84,3.82-1.09,7.93-3.12,11.27-4.04,1.27-.35,3.09.65,3.62-1.61l-2.42-.81,3.22.4v1.21l5.64-1.61-2.42-.81,2.01-1.61c.8,1.04,4.38,1.16,5.64.81.69-.19,1.3-2.21,2.82-1.61v-1.61c3.78-.76,7.52-2.68,10.87-4.04.51-.21.69-1.23,2.01-.81l-1.61-3.23,2.42,2.42c.21.19,2.24-1.26,2.82-1.61,5.43-3.39,8.33-6.76,13.29-10.9.82-.68,1.04-1.54,2.42-1.21-1.27,1.51-.55,2.92-.81,4.44Z"/>
  <path class="cls-5" d="M88.17,5.16v1.44h1.49l1.12,2.16,3.36.72v1.44l1.87-.72,2.62,1.44v1.44c2.08.05,3.3,1.14,4.86,2.16,5.25,3.44,13.77,11.29,17.56,16.21,2.36,3.07,4.65,6.7,6.72,10.09,1.37,2.24.94,2.39,1.49,4.32.06.22,1.82,2.69,2.24,3.6,1.48,3.22,1.66,4.54,2.24,7.93.26,1.49,0,1.06,0,1.44,0,.15,1.16.71.75,1.8l-1.49.72,1.49.36c.31,2.55-.7,5.39.75,7.57h-1.49c-.41,1.15.7,1.52.75,1.8.3,1.71-.35,6.15-.75,7.93-.06.26-.61.41-.75.72-.49,1.09.55,1.37-2.24,1.08l1.49.72-.75,1.8.75,2.16c-.09.28-.65.43-.75.72-.96,2.82-1.73,5.98-2.99,8.65-1.12,2.38-3.1,5.4-4.48,7.93-1.63,2.97-2.8,4.73-3.74,7.93-.09.29-.7.45-.75.72-.2,1.1-.15,3.86,0,5.04.03.26.7.44.75.72.98,5.33,2.09,9.77,3.74,15.13.11.36,1.18.96,1.49,1.44l-1.49.36v1.44h1.49c-.26,4.1,3.46,8.32,4.48,11.89.3,1.05-.55,2.32,1.12,3.24,1.88.32,1-1.38,1.12-2.52.16-1.45.07-1.88,1.49-2.88l-.75-.72c1.45-3.81,2.83-8.45,4.48-12.25-2.62-3.49-1.46-8.49-2.99-12.25l.75-1.8h-1.49l.75-1.08-.75-.72.75-.72-.75-.72c1.46-5.78,2.65-11.31,4.48-17.29.04-.13,1.06-1.33,1.49-2.16,5.95-11.31,13.45-18.99,24.28-25.58,3.83-2.33,9.09-4,13.45-5.04,5.13-1.23,10.43-1.87,15.69-2.88.29-.06.47-.68.75-.72,4.15-.59,8.06-.08,11.95-.72,1.62-.27,5.17-1.73,7.47,0l.37-1.44,3.36.72,1.49-.72c2.01,1.53,4.67-.3,6.35,2.52.4,1.25-2.91,2.2-.75,3.6l-1.49.36.75,2.52c-1.9,1.84-1.67,4.46-2.24,6.49-.09.32-1.43,1.89-1.49,2.16-.25,1.12.17,2.74,0,3.96l-2.24-.72.75,2.88c-2.03-.22-2.67,1.89-3.74,3.24l2.99-.72c-1.56,2-1.92,5.19-5.23,4.68l.37,1.44,2.62-.72c-1.25,1.85-.05,4.5-2.99,4.32l.75,1.08c-2.63,5.68-5.34,11.37-8.22,16.93h-1.49v1.44h-1.49v1.44h-1.49c.83,1.23-2.57,4.83-3.36,5.04-.69.18-1.8-.12-2.62,0l.75,2.16h-2.24c-.34,2.42-4.76,4.4-7.1,5.04-.62.17-2.64,2.71-4.11,2.16v-1.44l-2.62,1.44-2.62-.72v2.16h1.49c-.28,1.76-1.97,1.17-2.62,1.44-4.02,1.73-5.7,1.47-9.71,2.16-5,.86-10.69,2.31-15.69,2.88-1.64.19-3.69-.27-5.23,0-.27.05-.44.63-.75.72-.89.27-1.67-.35-2.62,1.08-.1.14.11.49,0,.72-.15.3-.63.44-.75.72-.17.4.15,1,0,1.44-.28.82-1.34,2.9-1.49,3.6-.36,1.68.85,4.03-2.24,3.96l1.49.72c-1.23,1.7-.64,3.71-.75,5.76l-1.49-.72v3.6l-2.99-2.16,1.49,6.49,2.24-2.16v7.57c2.94,5.76,4.22,12.51,5.98,18.73.47,1.66,2.87,2.95.75,5.4h1.49c-.4,1.18.63,1.43.75,1.8.72,2.33.61,5.62,1.49,7.93,1.9,4.95,3.71,9.98,5.23,15.13.2.66,1.42,3.12,1.49,3.6.33,2.19-.24,4.92,0,7.21l2.24,1.8c.11-1.28-.17-2.72,0-3.96.3-2.21.96-5.52,1.49-7.93.06-.25,1.44-1.92,1.49-2.16.34-1.5-.38-18.04-.75-20.18-.05-.28-.75-.48-.75-.72s.7-.44.75-.72c.19-1.1-.19-2.5,0-3.6.05-.27.69-.44.75-.72.64-2.96,1.29-5.55,2.24-8.65.05-.17,1.17-2.23,1.49-2.88,5.71-11.62,17.39-24.64,30.63-27.02v-1.44l13.45-3.6v1.44h4.48l-.75-1.44c1.31.56,2.38-.69,2.62-.72,2.79-.39,9-.23,11.95,0,1.23.1,4.4.47,5.98.72,1.32.21,2.01-.06,2.24,0,.29.08.44.63.75.72,2.24.69,5.28.77,7.47,2.16.39.25,2.56,2.35,2.62,2.52.11.37.26,1.81-.37,1.8h-3.36c-.63,2.72,2.58.68,3.74,1.8l-2.99,3.6,1.49,1.44c-1.65,1.45-1.54,4.07-2.24,5.76-1.91,4.62-4.46,8-5.98,12.97-.11.37-1.21.94-1.49,1.44-1.04,1.8-.88.78-2.62,1.8-.75.44-2.43,2.25-1.87,2.88l2.99-.36c-.42.64-2.1,1.69-2.24,2.16-1.04,3.49-5.99,11.77-9.34,14.05-.62.42-2.32.31-1.87,2.16h-1.49c-.92,3.38-5.04,5.62-7.85,7.21-1.18.67-4.24,2.62-5.23,2.88-1.17.31-3.15.37-4.48.72-4.04,1.05-9.28,2.41-13.45,2.88-3.37.38-5.54.14-8.22.72-3.16.68-8.49-.5-11.95,0-.34.09-1.78,2.23-1.87,2.52-.62,2.2-.9,4.91-1.49,7.21-.72,2.78-1.27,7.26-1.49,10.09-.13,1.67-.32,5.8,0,7.21.06.27,1.4,1.84,1.49,2.16,1.72,6.09,4.06,12.36,5.98,18.01,2.72,8.01,5.4,17.81,8.97,25.22,1.47,3.05,3.52,6.59,2.24,9.73h1.49c1.6,3.67,3.3,7.67,5.23,11.17l-.75,2.52h1.12l1.12,1.8-1.49.36.75,7.21c2.22.5,1.91-1.55.75-2.52-.37-2.1,1.39-.41,1.49,0,1.42,5.83,3.67,10.93,5.23,16.57.15.55,1.42.5,0,1.44,3.41,3.83,4.61,8.84,5.98,13.69.8,2.83,2.74,5.67,3.74,8.65.78,2.33.92,5.92,1.49,7.93.24.83,3.38,2.47.37,4.68l-.75-1.44-.75.72c-.83-.91-2.14-1.47-1.87-2.88l-.75,1.44-2.99-.72c.55-1.36-1.32-1.9-1.49-2.52-.36-1.25,0-1.81-.75-3.6-1.23-2.98-3.19-6.8-2.24-9.37-1.87-1.22-1.57-2.66-1.49-4.68h-1.49c-.46-3.84-2.52-7.66-3.74-11.17-.73-2.13-1.32-4.56-2.99-6.49l.75-.72-.75-.72.75-1.8h-1.49l-1.49-6.49h-1.49c.15-1.99-1.8-4.58-2.24-6.12-2.39-8.45-7.01-16.13-8.22-24.86h-1.49c-.13-1.54-1.1-3.34-1.49-4.68-.67-2.25-.89-5.67-1.49-7.21-1.64-4.13-3.37-7.34-4.48-11.53-1.01-3.78-2.59-6.72-3.74-10.09-.22-.64.39-1.56-.75-2.16l2.62.36c1.45-.4.65-3.42,2.24-1.44l.37-1.44h-2.24l-1.49-1.44.75,2.88h-2.99c-.14-1.01.21-2.32,0-3.24-.13-.55-1.52-.78,0-2.52h-1.49l-2.99-7.57.75-1.08h-1.49c.56-2.32-2.06-2.73-1.49-5.04-3.83-2.12-5.88-6.66-10.83-8.65-.4-.16-.98.13-1.12,0-.09-.08.05-1.76-1.12-2.16l-.75,1.44c-.85-1.27-2.41-.49-3.74-.72-.21-.04-.78-1.15-2.24-.72-.56.17-1.46,1.26-2.99.72l-7.47,5.76c-2.48.37-4.94,2.38-7.47,3.6l-10.83,2.88-.37-1.44c-.64,1.08-1.5.53-2.24.72-1.3.34-4.22,1.13-5.98,1.44-1.97.35-7.64-1.03-9.71-1.44-.66-.13-1.52.09-2.24,0l.37-2.16-1.87,2.16c-.33-.16-.49-.67-.75-.72-6.8-1.31-15.12-4.43-20.92-7.93-1.83-1.1-4.26-2.47-5.98-3.6-1.46-.96-3.85-3.58-5.23-4.32-.35-.19-.96.13-1.12,0l.75-2.16-1.49.36c-4.52-2.93-8.61-6.39-12.7-10.09-.45-1.37,3.63-3.01,2.99-4.68h1.49v-1.44c1.22-.39,1.49.61,1.87.72.94.26,1.4-1.09,2.62-.72l-2.99-.72,1.87-2.16,1.49.72,1.12-1.08-.75-.72c.92-.77,1.68-1.79,2.62-2.52,3.15-2.47,7.34-4.59,10.46-7.21l1.49.72c.3-.4.91-.71,1.12-1.08.2-.34-.14-.95,0-1.08.85-.82,8.3-3.04,10.09-3.6.95-.3,2.83-1.21,3.74-1.44,13.16-3.4,25.76-2.22,38.11,4.32,2.73,2.78,8.3,4.28,9.34,7.93l1.87-.72c.63.85,2.15,1.72,2.62,2.52.2.34-.14.95,0,1.08s.77-.19,1.12,0c1.53.84,2.25,8.14,4.48,9.37.87.47.91-.41,1.87,1.8l-.75,1.08h1.49c-.37,3.27,4.76,5.25,4.48,8.65l1.49-.72c.14.16-.2.74,0,1.08,1.6,2.76,6.91,5.41,9.34,6.85.91.54,1.21,1.04,2.62.72l-2.24-4.68-1.49-3.6.75-1.08h-1.49c.39-1.19-.59-1.38-.75-1.8-.7-1.88-.89-4.48-1.49-6.49-2.07-6.85-4.87-13.92-6.72-20.9-2.21-8.28-5.83-17.54-9.71-25.22-.99-1.96-2.13-4.46-2.99-6.49-.39-.93-2.87-3.3-4.11-3.96-.35-.19-.98.13-1.12,0s.2-.74,0-1.08c-2.15-3.71-8.59-5.4-12.33-6.12-.29-.06-.47-.68-.75-.72-1.07-.15-3.41-.15-4.48,0-.22.03-1.61,1.32-2.99.72-1.05.85-1.94,2.1-2.99,2.88-2.6,1.94-5.35,3.09-8.22,4.32-.87.37-2.8,2.11-2.99,2.16-2.04.56-10.17,3.18-11.21,2.88-2.38-.7-3.94-.48-6.72,0-4.23.73-7.27,1.29-11.95.72-.27-.03-.46-.67-.75-.72-.77-.15-1.78.09-2.62,0-.19-.16,1.44-1.35-.37-2.16l-.37,1.44c-1.31-.13-2.85.19-4.11,0-6.42-.95-17.47-9.33-22.42-13.69-5.59-4.93-9.82-10.48-14.57-15.85h-1.49v-1.44c-1.99-.07-4.15-2.3-3.74-4.32H.75l-.75-1.8,1.49-1.08.37,2.16h2.62l-1.49-.72-.75-2.16,6.35-2.88,1.12.72v-1.44c3.32-.56,6.03-3.63,9.71-2.88v-1.44c4.14-1.69,8.47-4.25,13.08-5.76,8.06-2.66,16.23-4.52,25.4-3.6.27.03.47.68.75.72,3.31.48,5.06.58,8.22,1.44,9.14,2.5,20.04,8.54,25.03,16.57,2.95.15,3.9,3.61,5.23,5.4,4.63,6.26,9.77,12.02,16.81,16.21.84.5,2.93.94,3.74,1.44,1.63,1.01,1.24,1.94,2.99,2.88,1.59.85,1.7,3.03,3.36,3.6l-.75-3.24c-1.23-.97-1.78-1.65-1.49-3.24h-1.49c-2.04-8.27-5.95-16.75-8.22-24.86-.24-.86.4-2.82-1.12-3.24-3.52-.97-2.85-2.08-5.23-3.6-3.13-2-6.57-2.97-9.71-4.32-4.24-1.82-7.59-5.26-11.58-6.49v-1.44c-4.51-1.44-9.89-7.3-12.7-11.17-5.76-7.92-8.46-14.09-10.46-23.06-1.37-6.17-2.15-13.2-1.49-20.18.02-.26.71-.45.75-.72.77-5.88.72-12.48,2.24-18.01.93-3.35,2.94-6.83,3.74-10.09,1.27-5.2,5.48-8.1,5.98-13.69l1.87-2.52c1.75-.46,2.4.56,2.99.72,3.85,1.07,7.37,3.06,10.83,4.32ZM82.94,7.33l-5.98-.72v1.44h-1.49l.75,3.96-1.49,4.32-1.87-1.08-1.12,1.08.75,1.44c-.3.97-.5,2.28-.75,3.6-.2,1.07.14,2.46,0,3.6l-3.74,1.8,1.49,1.08-2.24,1.8,2.24.72c.41,1.16-.7,1.52-.75,1.8-.92,5.06-1.54,11.08-2.24,15.13-.58,3.36-.54,6.32,0,8.65.68,2.93.84,6.37,1.49,9.37.05.23.55.4.75.72l-1.49.72c.33.41,1.45,1.98,1.49,2.16.65,2.9-.78,2.55,1.49,5.76,2.69,3.79,5.05,8.65,8.22,12.25-.85,1.79-.32,1.28,0,2.16.15.41-.12.94,0,1.08l1.87-.72c.77.53,1.52,1.77,2.24,2.16,1.77.95.98,1.39,2.24,2.16,5.84,3.6,11.78,8.48,18.68,10.09l4.11,2.16c.68-.75-1.73-5.22-2.62-5.76-1.43-.88-4.04-2.58-5.23-3.6-4.02-3.45-7.6-7.65-11.58-11.17.73-1.18,1.65.22,2.24.72,2.45,2.06,4.63,4.91,7.1,6.85,2.14,1.67,4.97,3.6,7.1,5.04v1.44l2.24-.72,1.12,2.88c1.36-.89.88-1.33.37-2.52-.19-.46-1.13-.61-.75-1.8l-1.87.72c-1.63-.91-.84-2.07-1.12-3.24-.81-3.34-1.46-6.59-2.24-10.09-.2-.89-2.19-2.39-1.49-3.96-1.22.34-1.29-.4-1.87-.72-3.43-1.87-8.81-4.51-8.59-8.65h-1.49v-1.44l-2.24.72c1.3-1.51.58-3.49-1.49-2.16v-2.52l-2.99-2.16v-1.8h-1.49l.75-1.8-.75-1.8h-1.49c.51-1.58-1.79-2.25-2.24-3.24-.14-.31-.18-1.19.37-1.08,1.21.85,2.4,1.29,3.36,2.52,1.74,2.22,2.87,5.64,4.48,7.93,3.04,4.32,7.22,6.75,10.83,10.45l4.11,1.44c-.39-2.93-3.7-5.08-1.49-7.93-2.58.27-1.78-1.99-2.99-3.24l.75-1.08h-1.49v-1.44l1.49-.36-2.24-3.6c.58-1.45-.61-2.4-.75-2.88-.21-.73.37-1.57-.75-2.16l1.49-1.08c-3.27.12-1.6-3.75-3.74-5.4l.75-.72-1.49-1.44c.71-1.72-.32-3.33-.75-5.76-.05-.28-.73-.47-.75-.72,0-.13,1.33-1.26.75-2.52l-2.24.72c-.31-2.05.19-3.47,2.24-4.32l1.49,5.04h1.49c-1.14,2.76,1.22,4.5,1.49,5.4,3.1,10.4,5.75,20.53,10.46,30.26l.75,3.96c1.44.07.59-2.27.75-3.24,1.08-6.9,2.78-13.92,3.74-20.9l2.24-3.24.75,2.88-1.49.72,1.49.36-2.24,2.88.75.72-1.49,1.44.75,1.08h-1.49c1.89,1.91,1.58,3.56,1.49,6.12l-2.24,2.88,1.49,1.44c-.31.47-1.39,1.09-1.49,1.44-.45,1.57.72,2.57.75,3.96l-1.49-.36c1.18,2.41,1.08,4.51-.75,6.49v.72c1.63,4.92,3.06,9.92,4.48,15.13.11.42,1.31,1.2.75,2.52.87.97,1.43.09,1.49-1.08.1-2.02.06-3.98.75-5.76.99-2.58,1.99-4.75,2.99-7.21,1.24-3.06,2.37-6.35,3.74-9.37.23-.51,1.19-.88.75-2.16l2.24-2.52c.3,1.24-1.17,2.38-1.49,3.24-.16.41.15.99,0,1.44-1.06,3.25-2.28,7.51-3.74,10.81-1.12,2.54-4.05,6.3-4.48,8.65-.5,2.68-.08,5.94-.75,8.65l1.49,2.52c-.85-1.96,2.02-3.94,2.24-4.68,1.33-4.46,4.52-8.06,5.98-12.61h1.49c1.13-3.39,1.52-6.88,2.24-10.45.45-2.23,1.23-4.93,1.49-6.49.55-3.18.6-11.54-1.49-13.69,1.82-1.42-.6-3.23,0-5.4l1.49.36v-1.08h-1.49c-1.08-2.73-2.17-6.47-3.74-9.01-1.33-2.16-4.31-3.83-3.74-6.49-4.72-3.13-7.3-8.41-12.7-10.45v-2.16h-1.49l-.75-3.6-2.99-.72v-2.88l-.75,1.44c-2.98.85-3.29-1.32-4.86-2.16-2.18-1.17-.85-1.2-4.48-2.16-1.17-.31-5.52-4.71-6.72-5.04-.89-.25-1.83.27-2.62-1.08l1.49-1.8ZM209.21,64.25l-3.74-.72-.37,1.44c-1.16-1.6-2.24.46-4.11,0l2.99,1.44-3.74.72,5.98.72-8.22.72.75-2.16-4.48-.72,2.99,2.88c-1.06-.61-2.09-1.01-3.36-.72-3.35.77-7.04,1.35-10.46,2.16-.29.07-.46.66-.75.72-.6.12-2.87.44-2.62-.72,2.2.31,1.99-1.89,3.36-2.88l.37,1.44,2.24-1.08c-1.23-1.63-3.48-1.52-4.48,0-1.1,1.67-1.88,1.94-2.99,3.6-.97,1.46-5.44,1.31-7.1,3.24l-1.49-.72c-1.73,2.02-4.09,2.8-6.35,3.6v1.44l-2.62,1.44-1.87-.72.75,2.16-4.48.72,1.49,1.44c-1.29-.64-4.23,1.68-4.48,2.52-.13.44.13,1,0,1.44-.25.85-4.34,2.42-5.23,3.6v2.52c-1.01-.02-3.35.95-3.74,1.8-.14.31-.18,1.19.37,1.08l1.87-1.44c.53,1.39-.6,2.07-.75,2.52-1.68,5.2-3.02,10.57-4.48,15.85-.49,1.75-.15,1.99,0,2.88.2,1.17.26,7.73,0,8.65-.1.36-1.92,1.46-1.49,1.8l2.62.72c.54-.64,1.39-1.17,1.87-1.8.34-.45,1.15-2.44,1.49-2.88,5.39-7.09,10.98-11.26,13.45-20.18.44-1.61.71-3.53,1.49-5.76.43-1.24.45-1.83.75-2.88s2.14-2.33,1.49-3.96c2.13.34,1.97-1.82,3.36-2.88l.37,1.08-2.99,5.04c.85,3.07-1.92,7.36-2.99,10.81-.21.67-.21,2.46,1.12,1.8l11.21-10.09h1.12v-1.44c6.13-2.99,11.84-11.18,18.31-12.97.13-.04.99-.86,1.12-1.08.2-.34-.14-.95,0-1.08.6-.08,1.38.14,1.87,0,.59-.17,1.7-2.51,2.62-1.08l-2.24,1.8v1.44c-2.32.06-2.4.8-2.99,1.8-.81,1.38-2.24,1.12-3.74,1.08l.75,2.16h-1.49v1.44h-2.24v1.44c-2.01.23-4.99,3.11-5.23,5.04h-1.49c-.19,1.59-1.01,3.86-2.99,3.6v1.44h-2.99c-.19,1.59-1.01,3.86-2.99,3.6v1.44h-1.49v1.44c-.14.13-.77-.19-1.12,0-1.51.81-.43,2.69-2.62,2.16-.28,1.15,2.12.85,2.62.72.41-.11,1.08-1.33,1.49-1.44,1.27-.34,3.67.19,5.23,0,2.12-.25,7.3-1.53,9.71-2.16.33-.09,1.96-1.38,2.24-1.44.96-.2,2.31.13,3.36,0l.75,2.16h-4.48l1.49,1.44-4.11-.72.37,1.44-3.36-1.44-1.87.72v1.44l-1.12-.72c-2.53.49-6.43,1.35-9.71,2.16-1.06.26-2.29.46-3.36.72v1.44l-1.87.72-1.12-3.6-.37,2.88.37,1.44h-1.49v2.16h-1.49v1.44h-1.49v1.08l-10.46,11.53v1.8c1.41.53,2.24-.63,2.62-.72,2.81-.68,6.15-.9,8.97-1.44,6.54-1.26,13.29-2.17,19.43-4.32l.75.72c.77-1.23,1.67.44,3.36,0l-1.49-2.16c1.23.38,1.43-.57,1.87-.72,3.56-1.24,8.03-3.01,9.34-6.49h1.49c2.54-5,8.27-8.81,8.97-14.41,1.33.15,2.24.04,2.99-1.08.1-.14-.11-.49,0-.72,1.61-3.3,2.41-6.68,4.48-10.09.52-.86,1.92-1.12,1.49-2.52h1.49l-.75-1.8,2.24-3.96c-2.02-.03-3.37,1.8-2.99,3.6-3.46.31-.03-2.92.75-3.96s1.49-2.68,2.99-3.6c.08-3.05,1.43-5.72,2.24-8.65.08-.29.75-.48.75-.72l-.75-2.52h-2.24v-1.44l-4.48.72v-1.44ZM100.12,106.04l-1.49-2.16-.75,2.88,4.48.72v1.44l1.12-.72,2.62.72c-.16,1.96,2.03,2.85,3.74,3.6-.26-2.49-2.25-4.5-4.48-5.4l-2.24.36.75-1.44h-3.74ZM51.56,107.49l-2.62-2.88-.37,1.44-2.62-.72-.75.72h-2.62c-.63,2.29,2.47,1.75,3.36.72l2.99,1.44,2.62-.72ZM39.6,108.93l-.75-1.44-1.12,2.88-1.87-.72v1.44h-1.12l.37,2.16-1.49-1.44c-1.41-.53-1.96,1.26-2.62,1.44-1.92.53-2.55,1.32-2.99,1.44-6.38,1.82-11.74,4.33-17.93,6.49-.44.15-.64,1.1-1.87.72-.22,1.19.97,2.23,1.87,2.88,2.35,1.71,6.78,5,7.85,6.85,1.46,2.52,4.95,4.03,7.1,5.4.9.57,1.7,1.85,2.62,2.52l-.75,1.44,1.12,1.08,2.24-.72,2.99,3.6.75-.72,1.12,2.16c3.74.21,6.64,3.09,10.09,4.32,4.11,1.47,9.79,2.13,14.2,2.88,1.33.23,2.88-.55,3.74.72,3.24-2,7.39-1.42,11.21-2.88,5.29-2.02,10.52-5.17,15.32-7.21v-1.44l3.36-1.44c.89,1.32,1.12-.25,2.62,0l1.49,1.44v-2.88l-11.58-2.16.37-1.44c-1.9-.21-2.91,1.05-4.86.72-.29-.05-.5-.72-.75-.72-.54,0-.03.43-2.24,0-.69-.13-1.62.16-2.24,0-.4-.1-1.2-1.25-2.62-.72l-.37-2.88-1.87.72,1.49,1.8-7.1,6.12c-1.63-.14-3.97,1.22-5.23,1.44-1,.18-2.29-.12-3.36,0l.75,1.44-2.24-.36-1.49.36v1.44l-2.24-.72,2.62-2.16c4.67-1.1,9.3-3.08,12.7-6.49l2.62-.72-.75-1.44,1.49-.72-2.99-.72.37,1.44-9.34-1.44v-1.44l-4.11.72-1.12-2.16-4.11,1.44c-1.33-1.3-3.28-.11-4.48-2.16l-.75.72-2.24-1.44-3.36.72.75-2.16c-1.53,1.17-1.42.06-1.87,0-1.65-.23-2.11.28-3.74,0-.95-.16-2.76.64-2.62-.72,1.38.63,3.51-.89,4.11-.72,2.87.79,3.7.23,5.98.72,5.8,1.25,13.24-.1,18.68,2.16l7.1.72-1.87-2.16c-2.7-.52-2.19-3.58-5.23-3.6l-7.85-5.76c1.85-.18,2.97-.1,4.11,1.44l.75-.72c4.86,3.27,10.03,7.03,15.32,9.37v1.44c3.8,1.35,7.54,2.23,11.58,2.88,1.04.17,2.87,1.26,3.74,1.44,1.89.39,3.65.2,5.98.72,1.94.43,3.73-.55,3.36,2.88l-3.74-.72v-1.44h-2.24l.37,2.88c.89.21,1.55-1.16,2.99-.72.64.19,1.25,1.18,2.99.72l1.12-1.08-.75-1.8,2.24-.72c-2.98.76-2.66-2.09-4.11-2.88-2.42-1.32-3.49-5.06-6.35-5.76.15-1.21.04-2.25-1.12-2.88-.35-.19-.98.14-1.12,0-.1-.09.07-1.71-1.12-2.16l-1.49.72-1.12-1.08v-1.8c-1.55.26-2.24-1.24-3.36-2.16l-1.49.72c-1.7-1.84-2.33-3.01-4.48-4.32-1.55-.94-4.36-2.44-5.98-2.88-4.15-1.14-9.53-.43-13.45-2.16-2.52,2.61-6.45.44-8.97,2.16l-2.62-.72c.15,2.29-1.78,2.35-3.74,2.16l2.24-.72-1.49-1.44ZM119.55,129.82c-.13-.13.17-.69,0-1.08-.21-.49-1.2-.89-.75-2.16l-2.24-1.8c-.6.68,1.35,2.72,1.49,3.24.29,1.04-.03,2.35.75,3.6.47.76,2.09,2.07,2.99,2.52v-3.24c-.47-1.15-2.15-.99-2.24-1.08ZM163.63,129.82c-1.15-.18-1.47.55-2.62.72-2.46.36-4.94.69-7.47.72l-2.62,1.08c1.15,2,2.54-.19,3.36-.36,1.44-.31,5.02-.24,5.98.72h.75c.39-.93,1.78-.63,1.87-.72.09-.08.11-1.55.75-2.16ZM225.65,152.16l-1.87.72c-1.1-.29-10.36-.42-11.95,0-1.24.33-4.18,3.2-6.72.72l-3.74,2.16-1.87-.72v1.44c-1.22-.34-1.29.4-1.87.72-4.84,2.64-9.89,6.08-14.94,7.93l-1.87,2.16-1.12-1.44,1.87-2.88-1.87-.72c-.38.92-1.8.65-1.87.72-.19.19-.06,2.74-2.24,2.16v1.44l-2.24,2.16,5.98-2.16-.75,4.32c-.6.08-1.38-.14-1.87,0-1.72.49-5.09,6.58-5.6,8.29-.39,1.32-2.94.72-3.74,2.16l1.49.72-.75,1.44c1.15.41-.16,2.72-1.12,3.24-.35.19-.96-.13-1.12,0l.75,1.8c-1.85,2.39-2.33,5.19-2.99,7.93-.07.27-.65.43-.75.72-.43,1.37,1.16,2.21.75,3.6-.09.3-.75.49-.75.72s.7.44.75.72c.39,2.28-.73,4.89.75,6.85l-2.24.72c.77-.17,2.69.44,2.99-.36,1.08-2.87,5.8-6.76,8.22-9.37.88-.95,7.32-7.4,7.47-7.93.22-.77-.19-2.03,0-2.88.21-.96,2.44-3.81,2.99-5.04,1.39-3.14,2.44-7.03,3.74-10.09.19-.46,1.13-.61.75-1.8h2.24l-.75-1.8,1.12-1.08h1.87c-1.05-.99-.12-2.27,1.12-2.88,1.32-.65,1.34,1.13,1.12,1.8-.3.89-3.08,3.37-3.74,4.32-.51.74-1.03,2.67-1.49,3.6-.6,1.2-1.93,2.22-1.49,3.96l-1.49-1.44-.75,2.16,1.49.36c-1.08,1.57-2.4,3.43-2.24,5.4l-1.49-.72v2.88l1.49-1.44,1.87-.72,1.12.72c-.2-.98.12-2.6,1.12-2.88,3.67-1.02,1.91-1.77,3.74-2.88,3.73-2.28,7.53-5.14,11.21-7.93l1.49.72c1.14-1.53,2.21-1.63,4.11-1.44l-.75-2.16h2.99v2.16c-1.42-.37-1.7.83-2.62,1.44-.59.39-1.91.59-2.62,1.8-1.04,1.8-2.92,2.54-4.86,3.96-2.71,2-10.48,8.54-11.58,10.45-1.18,2.05-4.58,3.34-5.23,3.96-.14.13.2.74,0,1.08-.4.7-1.69,1.42-2.24,2.16l.75,1.8c-2.63-1.09-5.24,3.29-6.35,3.6-.49.14-1.27-.08-1.87,0l.75,1.8-8.22,7.57c1.83-.12,3.81.17,5.6,0,.27-.03.47-.69.75-.72,2.16-.22,4.45.57,6.35-.72l.75,2.16c-.49-2.03.82-1.01,1.87-2.16,1.75.95,1.79.07,2.24,0,1.76-.28,4.07.67,5.23-.72l1.49.72c.77-.99,2.73-1.93,3.74-2.16,1.69-.39,2.63.66,4.11.72l-.37-1.44,4.86-.72-.75-1.8,6.35-3.96c3.83-4.23,10.17-8.56,12.33-13.33.61-1.35.92-4.47,2.62-5.4,2.25-1.23,1.64-1.98,2.62-3.96,1.25-2.54,3.39-5.4,4.48-7.93,1.41-3.26,1.98-7.88,3.74-10.81.3-.5,1.38-1.07,1.49-1.44.54-1.73-1.96-1.6-2.62-1.8-.31-.09-.46-.66-.75-.72-.73-.17-1.79.11-2.62,0v-2.16c-1.2.4-1.58-.67-1.87-.72-1.23-.21-2.81.14-4.11,0v-1.44ZM187.54,156.48l-3.36,1.44-3.36,2.88,2.99-.72v2.16l4.48-.72.75-2.52c-1.21-1.67-3.14-.33-1.49-2.52ZM83.68,188.19l-.75-1.44-.75,1.08-3.36.36-1.49-.72c-1.19,1.53-3.22,1.11-4.48,1.44-.4.1-2.55,2.44-4.48,2.88-.73.17-1.79-.11-2.62,0v1.44c-2.18.07-3.93,1.14-6.35.72l-1.12,1.44,1.49.72c-3.61-.19-5.88,3.29-8.97,3.6v1.44l-2.62.72-9.34,6.85.75,1.8c.6.08,1.38-.14,1.87,0,2.55.73,8.79,9.56,13.08,8.65v1.44l2.99.72v1.44l3.74,1.8v1.8h1.49l.37-1.44c7.62,5.51,17.18,6.31,25.4,8.65,1.35-1.48,3.42-.17,4.48,0,4.1.66,10.85-3.18,15.32-2.88v-1.44c1.6.47,4.27-2,4.86-2.16.89-.25,1.83.27,2.62-1.08l-.75-1.08c1.9.18,2.97.09,4.11-1.44l2.62.72v-1.44l2.62-1.44c1.81,2.49,2.63,1,4.48.72,1.36-.21,2.24.04,3.36.72l-2.62-2.16c-3.45-1.87-6.85-1.26-10.46-2.16s-7.18-2.77-11.21-2.88l-3.74-2.16-2.99,2.88c-.98-1.34-.86-.21-1.49,0-.42.14-.97-.12-1.12,0l.75,1.08-1.87,1.8-.75-1.44-1.87.72v1.44l-2.24-.72.75,2.16-1.87.72-1.12-.72v1.44l-2.62.72-2.24-.72-2.62,2.16-.75-2.16c1.23.38,1.43-.57,1.87-.72,4.56-1.57,8.3-3.67,12.7-5.76l4.11-4.32-5.23-.72,2.24-1.44-2.99.36v1.08l-3.36-1.44c-2.87,1.84-6.61-1.45-10.46-.72-.25.05-.81,1.08-1.12.72l-.75-3.6v3.6l-6.72-1.44-.37,1.44-1.87-2.16-.75,1.44-2.24-.72-.75-2.16c1.18.2,1.46-.59,2.62-.72,5.31-.6,14.62-.28,20.17,0,.26.01.48.7.75.72,2.84.17,5.75-.12,8.59,0l-4.11-1.44c-2.6-2.87-7.71-3.9-8.59-7.93l-1.49-1.44c1.5-.09,2.1-.22,3.36.72,7.09,5.25,15.06,11.31,23.16,14.41,4.01,1.54,8.77,2.52,12.7,3.6.33.09,2.42,1.95,2.62,0l-2.24-1.8,2.99-.36-2.99-1.8v-1.8l-3.74-.72c1.28-4.41-2.45-3.89-3.74-6.12-.71-1.23-5.17-5.06-7.1-6.12-1.09-.6-2.98-1.27-4.11-1.44v-1.44c-1.85.18-2.23-2.04-4.48-1.44v-1.44h-.75c.07,3.77-2.99-.76-4.11-1.44-.2-.12-1.13.09-1.49-.72-1.16,1.6-1.79-.14-3.36,0l-.37,1.44c-1.68-1.96-3.83-2.43-6.35-2.16l-.75,1.44Z"/>
  <path class="cls-4" d="M479.92,81.82c-4.04-.08-11.93.77-15.25,0-3.6-.83-8.08-1.32-12.2-2.4-30.23-7.87-72.47,4.3-86.57,36.74.07-.14,1.78-1.14,2.29-2,.55-.92.6-3.25,2.29-3.59-.3,1.53,1.28,1.69.38,3.19-.62,1.05-1.64,1.25-1.14,3.19l-1.53-1.6-1.14,3.19c-.64-.58-1.6-1.43-1.14-2.4h-.76c-.27,3.69-2.69,7.6-3.81,10.78-1.69,4.78-1.46,13.48-3.81,17.57-2.84,4.93-9.02,9.76-12.97,14.37-4.07,4.77-8.12,10.69-11.44,15.97-4.53,7.22-8.41,14.65-12.2,22.36l-.76,4.39,2.67-3.99h2.29l1.14-1.2-.76-.8,1.53-2v3.59l.76.8-1.91,2.8h-1.91v3.59l-1.14,1.2-.76-1.6-1.91.8v-3.19h-1.53c-.72-.76,2.38-3.72.76-4.39,0-.26.67-.47.76-.8.44-1.59-.7-2.09-.76-2.4-.19-.87.08-1.73-.22-2.65l1.75,3.05c1.27.27.88-3.14.76-3.59-.12-.44-1.4-1.15-1.53-1.6-.54-1.98-1.41-3.91-1.53-5.99h-1.53l-.76-6.39-1.53.8c-.13-1.14.19-2.53,0-3.59-.16-.89-1.31-3.26-2.29-3.99.95-.66.95-2.04.76-3.19-.63-3.87-.6-6.61,0-10.38.18-1.14.22-5.35,0-6.39-.06-.29-.63-.46-.76-.8-.48-1.26-.77-2.83-1.91-3.59-.19-.13-.61.12-.76,0-1.18-.88-1.36-2.14-3.43-1.6l-.76-3.99,1.53,3.19,1.53-2-.76-.8.76-.8-4.58-8.39h-1.53c-1.98-4.3-9.19-10.87-13.35-12.78-3.14-1.44-6.73-1.51-9.92-2.4-.31-.09-.47-.74-.76-.8-.78-.17-1.82.11-2.67,0l.38,1.6h-1.91v-1.6l-1.14.8-1.53-1.6-1.53,1.6c-.5-.1-1.07.14-1.53,0-.32-.1-.51-.8-.76-.8s-.44.7-.76.8c-1.42.44-2.31-1.19-3.81-.8l-.76.8-.38-1.6c-1.73-.48-2.64,1.36-3.43,0-2.95,1.02-6.79,1-9.92,1.6-1.95.37-4.28-.84-4.19,2.4h-.76v-1.6c-1.52.22-3.57-.31-4.96,0-.26.06-2.02,1.54-2.29,1.6-1.45.33-3.11-.72-4.19,1.2l4.58,5.59.76,2.4,5.34,6.39,3.05,6.79h1.53c-.4,3.9,2.78,6.94,4.58,9.98,1.97,3.33,3.86,7.47,6.1,10.38,1.31,1.7,4.52,4.05,5.34,5.59.55,1.04-.44.86,1.91,2,2.45,1.19,4.7,3.11,6.86,3.99.61.25,1.68-.42,2.29.8l1.14-1.6.38,2.4c1.2-.56,2.07.76,2.29.8,3.19.59,7.54.24,10.68.8.3.05.68,1.24,1.91.8l.38-1.6,1.53.8,4.19-1.6v1.6l1.91-.8c.38.9,1.32.66,1.53.8,1.15.76,2.66,2.38,3.81,3.19.3.21,1.98.58,2.29.8,1.33.92,2.19,2.11,3.81,3.19,1.47.98.88,1.75,1.14,2.8.15.61,1.45.56,0,1.6.78,2.51,2.06,7.58,1.53,10.38-.05.27-1.14.87-.76,1.2h1.53v2.4l-1.53-1.6c-.11,1.16.16,2.49,0,3.59-.21,1.39-1.03,4.13-1.53,5.59-1.09,3.2-2.89,6.54-4.58,9.58l.76,2.8h-1.53c.11,1.82-1.67,3.6-2.29,5.19-.31.78-.46,3.21-.76,3.99-2.16,5.51-5.28,11.23-6.86,16.77l.76,2.8c-.67.15-1.17-1.45-1.53-.4-.31.92-.66,1.31-.76,1.6-3.31,9.63-6.84,19.12-9.92,28.75-1.61,5.06-4.05,10.93-5.34,15.97-.46,1.8-.46,2.72,0,4.39h-1.53c-.65,2.95-2.23,5.7-3.05,8.39-.83,2.72.26,4.63,0,5.59-.19.69-2.87,2.52-3.05,3.19-2.22,8.45-4.06,16.66-7.63,24.76l3.05.4-.76,3.19-2.29-1.6,2.29,2.4c.57.79-1.27,2.88-1.53,3.59-.75,2.11-.37,4.5-.76,6.39-.14.69-1.92,2.31-1.53,3.59-1.23.27-.89-2.15-.76-2.8.13-.63,2.23-2.31-.76-2-.13,1.14.19,2.53,0,3.59-.05.3-.69.48-.76.8-1.27,5.59-2.3,11.37-3.05,17.17.55-.25,1.36-.99,1.53-.8l-.76,3.19,4.58-.8-.76,3.19-2.29,1.2.76,2,1.53-2.4v2.4c1.42-3.16,2.92-10.81,3.81-14.77,1.41-6.26,4.17-12.07,5.34-18.37,1.66-8.94,4.95-16.92,6.86-25.56,1.09-4.89,2.8-9.47,4.58-14.37,1.96-5.41,3.62-10.91,5.34-16.77.72-2.47,1.94-4.24.76-6.79h1.53c.06-3.87,1.53-7.6,3.81-10.78l-.76-2.8,1.53-.4-.76-2h1.53l-.76-1.2c1.28-1.04,1.2-2.8,1.53-3.99.26-.94,2.29-.94.76-2.8h1.53c-.3-1.77.27-2.52,1.53-3.59l-.76-1.6c2.45-1.92,2.99-4.55,3.81-7.19.89-2.85,1.6-5.33,2.29-7.99.18-.68,1.75-2.21,1.53-3.19l-1.53-.8,2.29-.4c-.4-1.32.57-1.49.76-2,2.1-5.45,4.34-12.3,7.63-17.57.51-.82,1.67-1.55,2.29-2.4l-2.29-.8,2.67-.4c1.05-1.49,3.33-2.95,4.19-4.39.43-.71.89-2.06,0-2.4,1.13-.74.49-3.16,1.91-3.59.4-.12,1.91-.28,1.91.4l.38,1.2c.64-.98,2.16-1.1,3.05-1.6.52-.29,1.13-1.48,1.53-1.6,6.39-1.92,13.9-.8,19.83,2.4l4.96,5.19c-.53,1.25.72,2.16.76,2.4.36,2.12-.36,5.07,0,7.19.04.23,1.2.81.76,2.4-.36,1.31-.34,1.17,0,3.19-1.89,1.5-1.12,4.05-1.53,5.59-.21.78-3.6,3.2-3.81,3.99-.26.95.29,1.96-1.14,2.8l-.76-.8c-.67,0-3.15,5.19-2.67,6.39h1.53l.76-1.6.76,2.8-.76,1.2h3.05l-2.29,2,.76,3.59-2.29-2.8-.38-2,.38-2.4-1.53.4v-1.2h-.76c-.08,3.4-2.07,8.18-1.53,11.58.5,3.15-.65,8.66,0,12.78.36,2.28,1.32,7.23,1.53,10.38.26,4.09.44,12.39,0,15.17-.26,1.67-.3,8.81,0,10.38.05.27,1.14.87.76,1.2h-1.53l.76,1.2c-1.43,1.35-.54,3.96-.76,5.99l2.29-2-1.53-2,3.05,1.6c-.17-2.42.57-5.06-.76-7.19l3.05.8c.13-2.22-.18-4.58,0-6.79.79-9.69-.14-17.68-.76-27.15-.24-3.66.41-7.8,0-10.38-.61-3.82,1.06-8.05,2.29-11.18,1.05-2.66,1.9-5.01,4.19-6.79,3.65-1.05,4.25,2.08,5.34,2.4,1.03.3,2.35-.55,3.05.8l3.43-1.6,1.91-3.99h1.53c1.43.99,3.04,1.96,4.19,3.59.6.85,2.66,4.47,3.05,5.59.75,2.11.46,4.27.76,6.39.16,1.11,1.15,2.38.76,4.79-.56,3.52-.77,9.14-1.53,13.58-.33,1.94-.68,3.88-1.05,5.81,2.43-2.77,5.44-5.12,8.32-7.22.07-.05.14-.1.21-.14.33-2.16.64-4.34.91-6.44.18-1.37-.12-2.97,0-4.39h-1.53c.08-.64-.14-1.46,0-2,.45-1.7.53-2.72.76-4.79l-1.53-3.59,1.53-.4c-1.78-2.22-2.19-6.46-3.05-9.58-.21-.78-3.09-3.84-3.81-4.79-3.73-4.95-9.78-7.36-13.73-12.78.03-1.48-1.98-3.62-2.29-4.79-.55-2.11-.75-5.12-1.53-7.19-2.07-5.48-6.31-9.52-11.06-12.38l-1.53.8-.38-1.6-1.53.8v-1.6c-1.1-.12-2.38.17-3.43,0-1.88-.31-4.09-.45-6.1-.8-.1-.02-.18-.11-.27-.22-.34.12-.72.19-1.14.22-.58.39-1.31.63-2.2.63-.13,0-.25,0-.37-.02-.23.08-.44.15-.61.19-1.13.24-1.68.07-1.86-.29-.75-.05-1.46-.33-2.08-.77,0,0,0,0,0,0-.22-.12-.43-.26-.61-.42-.99-.65-1.55-1.75-1.68-2.9l-.26-.81.31-.57c.16-.87.57-1.67,1.23-2.26l1.51-2.77-1.53-2c.85-.74,1.95,1.43,2.29.4.34-1.03.46-1.6,1.53-2.4l-1.53-.4v-1.6c2.25.51,3.08-1.34,4.58-2.8l-1.53-2,2.67.8,1.14-2.4h1.53v-3.19h1.53v-1.6l1.14.8c1.63-1.41,2.52-2.7,3.43-4.39,1.29-2.4.71-1.3,1.91-2,2.54-1.48,7.1-7.31,9.92-9.58.65-.53,1.89-2.28,2.29-2.4.62-.18,1.57.13,2.29,0,.29-.05.51-.8.76-.8s.47.75.76.8c1.6.28,3.65-.21,5.34,0,.28.03.48.75.76.8,4.11.65,16.63,2.95,19.83,2.4.72-.13,5.2-1.02,6.1-.8.28.07.79,1.27,2.29.8,4.85-1.54,10.43-1.66,15.25-3.19,8.17-2.6,19.73-9.46,25.55-16.37,2.45-2.91,5.33-5.6,6.86-9.18h1.53v-1.6h1.53c.22-2.22,2.05-2.95,3.05-5.19.34-.76,1.21-1.21.76-2.8h-1.53c0-.9,1.18-1.35,1.53-2,.2-.38-.14-1.04,0-1.2.08-.09,1.64-.12,2.29-.8l.76,2c3.28-4.94,5.74-9.6,9.92-14.37l-.76-.8c3.6-1.74,4.11-5.41,6.48-6.79,3.76-2.19,4.35-4.54,6.48-7.59.73-1.04,2.61-2.28,3.05-3.19.76-1.56-1.26-1.18-1.91-1.2ZM246.15,121.75c1.9.21,3.04.1,4.19-1.6,1.02,1.31,1.75,1.91,3.43,1.6v-1.6h2.29v1.6l2.29-.8.76-1.6,1.14,2.4c.26,0,.47-.75.76-.8,2.3-.4,7.38-.17,9.92,0,.27.02.49.78.76.8,3.52.27,5.82-.41,9.15.8,2.5.91,4.91,3.06,8.01,2.4-.42,2.04,1.16,1.9,1.91,2.4,1.17.78,1.55,3.13,3.05,3.99l.76-1.6c1.43.84.88,1.84,1.14,2.8.21.79,2.05.95,3.05,3.19,1.57,3.53,2.69,3.66,4.58,6.39,1.31,1.88,1.09,2.84,1.53,4.79.07.31.69.48.76.8.16.68-.14,1.66,0,2.4.26,1.36,1.71,8.9,1.53,9.58-.17.62-.65,3.31-.38,3.59.97,1.01.29,2.13-.76,1.6-.92-.46-8.34-8.53-9.53-9.98-.57-.7-.99-3.32-3.05-2.8.27-2.8-1.77-4.81-2.29-7.19h-1.53c1.05-3.59-2.96-5.98-1.53-8.39-.9-1.14-2.55-1.88-2.29-3.59l-1.53,1.2v1.2l2.29,1.2v3.99l1.53.4-1.53.8.76,1.2c-.12,3.21-2.49-.52-3.43-1.2-1.9-1.38-4.79-2.85-6.86-3.99-8.92-4.91-18.33-8.2-27.46-13.58-.51-.3-.98-1.19-1.53-1.6-1.11,1.39-2.28,1.28-1.91-.8ZM263.69,133.73l6.86,2.4c-1.49,3.39-4.73.59-6.86.8,1.17-1.52-.12-1.6,0-3.19ZM307.17,172.86l-2.29-.8v-1.6c-1.58-.05-3.1-1.06-4.19-2.4l-2.29.8c-.69-1.05-2.57-1.02-3.81-.8-2.47.43-4.38-.55-7.63.8-2.67,1.11-10.74-1.26-13.73-2.4-.45-.17-.65-1.22-1.91-.8.63-3.09-2.44-6.63-5.34-6.39v-1.6c-8.54-5.41-12.39-17.7-16.78-26.35h-1.53v-2l-1.14-1.2h-1.91v-1.2l1.14-2c1.5.87,1.87,3.2,3.05,3.99.33.22,1.97.58,2.29.8,1.77,1.22,2.96,3.81,5.72,3.19l-.76,3.19c1.09.13,2.41-.2,3.43,0,.29.06.46.72.76.8,2.1.52,4.54.68,6.48,2,.77.52.9,1.08.76,2l1.14-1.6,8.39,5.59,4.96.8-1.53-2.4h3.81l-.76,2,2.29.8-3.05.4-.76,2,2.29,2.8c-1.65.42-5.75-2.76-5.34.8l2.29.4,5.34,1.2-2.29-1.6h3.81l-.76,2.4,2.67-1.6c.79.85,1.65,1.07.38,2l1.53,1.6-.76.8c.75.49,2.13,2.64,2.67,2.8.65.19,1.64-.19,2.29,0,.93.27,2.01,3.39,4.19,2.4l1.53,3.99c2.61-.75,2.89.83,4.19,1.6.36.21.99-.15,1.14,0,.07.07-.21,1.59.76,2l-1.53.4.76,2.4ZM265.98,364.92l-1.91,3.59-1.91-.8,1.53-.8-.76-1.2.76-2.8-1.53-.4c1.05-.99,1.84-1.61,1.53-3.19l1.53-2-.76,3.59.76.8-.76,1.2h1.53v2ZM272.84,332.98c-1.09.88-1.98,2.81-2.29,3.99-.17.64.43,1.91-.38,2l-1.91-.8c.76-1.52,2.01-1.96,1.53-3.99l-1.53,1.6v-2c.25-.97,2.18-2.84,2.29-3.19.4-1.29-.2-3.03,2.29-2.8.09,1.44.05,2.58-.38,3.99-.14.45-.76.28.38,1.2ZM295.73,264.3c-.12.44-1.41,1.16-1.53,1.6-.3,1.13.2,3.08,0,4.39l-.76-2.4c-1.55.56-3.95,3.61-.76,3.19l-.76,3.99h-1.53v1.2l-2.29,2,.76-3.59c1.5-.99-.31-1.21,0-2.4,2.36-3.18.82-6.41,4.58-7.99l-.76-.8.76-3.99,1.53-.4.38,1.6c.89-1.33,1.1-.43,1.91.4-1.65,1.02-1.2,2-1.53,3.19ZM310.22,224.77l-1.14,2.4-.76-.8-1.14,1.2,1.53,1.2-3.05.8c-.32-1.46,1.39-1.85,0-2.8,1.62-1.21,1.72-2.36,1.53-4.39l1.14.8,1.91-1.6-1.53,3.19h1.53ZM310.22,219.98l3.05-1.6-.76,3.19-3.05-.8c.27-1.59-1.4-1.85,0-2.8l-.76-2,1.91-.8,1.14.8,1.53-3.19-.76,3.99h-2.29c.97,1.53.91,1.72,0,3.19ZM429.2,77.82c1.25-.43,1.47.64,1.91.8,2.38.86,5.85-.38,9.15,0,.28.03.47.75.76.8,1.05.17,2.33-.12,3.43,0l-.76,3.19-.76-2.4c-1.1.12-2.39-.18-3.43,0-1.68.29-2.12.3-3.81,0-1.95-.35-3.63.22-3.43,2.4h-2.29l1.53-3.19-2.29,1.6v-3.19ZM369.71,129.33c1.76-2.31,2.04-5.51,3.05-7.99,1.52-3.72,4.25-7.31,5.34-10.78l3.05-.8-1.53-1.6h3.05l1.14-2.4,1.14.8v-1.6l2.29-1.2-.76-.8c.97-1.52,2.18-1.26,3.81-1.2l-.76-1.2c1.13-1.39,2.76-2.59,3.81-3.99.12-.16-.13-.62,0-.8,1.54-2.14,3.06-2.77,5.34-1.2l-.38-1.6h-1.14c1.24-1.19-.22-2.19,0-2.4,1.15-.44,1.75.8,1.91.8s.75-1.24,1.91-.8l-1.14,3.19c1.2-1.12,3.02-1.11,2.67-3.19l9.92-2.4-.76-1.6,2.67.8,3.05-2.4,2.67.8v-1.6l4.96,1.6c2.04-2.03,5.13-1.16,7.63-1.6.5-.09.55-1.54,1.53,0l10.3.8-1.53-1.6c.85.11,1.89-.17,2.67,0,.33.07,2.75,1.54,3.05,1.6,1.02.2,2.34-.13,3.43,0v1.6l2.67-1.6,3.05.8c2.06,3.29,4.44.46,6.86-.8,1.15-.6,1.4.62,1.14,1.6l-3.43.8c-1.27,2.37-3.02,1.15-4.58,1.6-.42.12-1.11,1.48-1.53,1.6-.82.24-2.15-.2-3.05,0-1.36.31-5.27,2.44-6.86,3.19-.78.37-1.79.82-2.67.8l1.53,1.6-4.19-.8c-1.17,2.07-3.59,1.69-5.34,2.4-7.17,2.9-13.34,7.9-19.83,11.98-3.95,2.48-8.29,5.03-12.2,7.19-1.16.64-2.96,2.55-4.19,1.2.43-1.25,2.2-1.1,2.29-1.2.14-.16-.2-.82,0-1.2,2.65-4.97,5.89-10.4,9.53-14.77.53-.63,2.01-1.61.76-2.4-.77.96-1.95.81-2.67,2-.12.2.11.64,0,.8-.67.98-1.91,1.29-1.53,2.8l-1.53-.8c.31,1.36-.49,1.59-1.14,2.4-1.16,1.43,1.12.29,1.14,1.2l-2.29.4c.24,1.95-3.19,3.74-1.53,5.19-2.96,2.1-3.96,6.38-6.48,8.39-.15.12-2.15,1.56-2.29,1.6-4.52,1.36-9.16,4.89-13.73,6.39-.38.13-1.26.2-1.14-.4.45-.61,1.28-1.8,1.53-2.4,1.42-3.39,3.29-7,3.81-10.78h1.53c-.64-2.2.95-2.48,1.53-3.59.46-.89.58-2.5,1.53-3.19l-1.53-.4c.44,1.55-.99,1.84-1.53,2.8-2.35,4.19-4.3,8.84-6.86,12.78l.76,1.6c-1.05,1.18-1.01,3.15-3.05,2.8l.76,1.2c-2.54,3.15-5.97,4.45-9.15,6.79l1.53-6.79ZM456.66,91.4l2.29,1.2-.76,1.2,3.81-2.4c.21,1.04-.12,2.9-1.14,3.19-.48.14-1.07-.15-1.53,0-.32.11-.48.75-.76.8-1.65.31-3.38-.57-4.96.8l1.14-2.4c.82,1.14,1.46,1.15,2.29,0l-.38-2.4ZM467.72,92.2h-1.14c.23,4.9-6.89,6.41-7.63,10.38h-1.91c-2.32,3.15-5.73,9.98-9.15,11.98-.36.21-1-.15-1.14,0l.76,2.8-17.16,17.97-5.34,2.4c-1.34,1.55-2.83,3.09-4.96,3.19l1.53,1.6c-1.07.15-2.46-.23-3.43,0-.65.15-2.86,2.03-3.81,2.4-2.28.88-5.82,1.14-8.39,1.6-.69.12-7.92,1.74-8.39,1.6-1.03-.31-2.41-.54-3.81-.8-2.76-.52-6.61.37-9.53,0l-.76,1.6-.38-2.4-1.14,1.6h-4.58l3.05-.8-2.67-1.6c-1.18.88-1.32,1.73-1.14,3.19-2.54-2.58-5.78-1.36-9.15-1.6-.18-1.39,1.74-.78,2.67-.8,1.91-.04,3.82.03,5.72,0,.17-1.42-1.72-.75-2.67-.8-2.43-.13-4,1.09-3.43-2.4l1.14,1.6c.31-.22.48-.64.76-.8,7.12-3.98,14.46-9.16,21.36-13.58,2.37-1.51,4.2-3.92,7.63-3.19,1.75-.67,3.83-.24,6.1-.8.75-.18,1.82.12,2.67,0v1.6c1.8-1.31,3.93-.68,6.1-.8v1.6c2.01-1.23,4.85-1.23,6.86,0v-1.6l2.67.8,1.53-1.6,1.53.8,3.81-.8v-1.6c-.92,1.27-2.48.76-3.81.8-6.92.18-12.02.71-19.07,0-.28-.03-.48-.77-.76-.8-1.46-.17-3.08.12-4.58,0l-.38-1.6c1.48.55,2.04-1.41,2.67-1.6,1.96-.58,4.13-1.25,6.1-2.4.89-.52,1.18-2.07,2.67-1.6l-.76-1.6c2.29-.08,4.26-4.02,6.48-1.6l1.53-1.6,5.72-2.4-1.53-1.6h4.19l1.14-2.4h3.05v-1.6l1.91.8,3.05-2.4.76.8c3.45-2.82,7.28-2.93,10.68-4.79,1.19-.65,4.47-3,5.34-3.19,1.97-.45,4.09.55,6.1-.8,1.4-.94,1.05-2.29,1.14-2.4.09-.1,1.86.05,2.29-1.2l-2.29-2,4.58.8-.38,1.6Z"/>
  <path class="cls-2" d="M280.87,290.48c1.2,0,2.11.43,2.76,1.09.01,0,.02-.02.03-.03-.93-1.56-.77-3.77.45-5.11-.88-.69-1.38-1.74-1.47-2.86-2.11-.12-4.01.22-6.75.82-5.27,1.16-9.19-.08-14.49.81-2.82.47-10.05.64-13.69.81-4.68.22-9.42-.16-14.09,0v1.61l-1.21-.81-.81.81c-1.36-1.52-3.99-.57-6.04-.81,1.23,1.53-.13,1.62,0,3.23l-.81-1.61c-1.22-.44-1.84.81-2.01.81-.27,0-.5-.75-.81-.81-1.16-.2-2.55-.2-3.22.81l-.4-1.61-3.22.81v1.61h-.81v-1.61h-10.47v1.61c-2-1.12-5.21-1.04-7.65-.81-1.57.15-5.65,1.44-7.25,1.61-1.67.19-3.53-.13-5.23,0l-.81,2.02.81,3.63h2.42l-.81,4.84,4.03-1.61v1.61c.9-.11,2,.17,2.82,0,.39-.08,2.74-1.49,3.22-1.61,3.97-1.06,8.92-.76,12.88-1.61,1.26-.27,1.99-2.23,4.03-.81,3.43-1.88,8.83-.21,12.88-.81.24-.04,1.73-1.48,3.22-.81l.4-1.61.81,1.61c2.79-.14,5.67.2,8.45,0,.29-.02.52-.79.81-.81,4.51-.34,16.74-1.55,19.32-.81.36.1,5.2-.73,5.64-.81,3.39-.57,8.74.13,13.26.33.33-1.68,1.6-3.13,3.8-3.13Z"/>
  <path class="cls-3" d="M348.16,292.5c-1.14,0-2.3-.07-3.43-.02l3.22-.81-1.61-.81,1.21-2.42.22.04c-.05-.76-.08-1.52-.08-2.28-2.32-.01-4.49-.07-4.97-.18-6.12-1.37-13.1.23-19.32-.81-5.79-.96-13.99.29-21.27-.52-.57,1.21-1.73,2.11-3.46,2.11-.66,0-1.23-.13-1.72-.36-.21.68-.44,1.35-.69,2.02,1.78.05,3.69-.22,5.41-.03.29.03.5.76.81.81,1.11.18,2.46-.12,3.62,0,.58,2.83-2.67,1.63-4.03.81v1.61h-2.42v-1.61h-2.42l-.81,1.61-.55-2.21c-.4,1.01-.82,2.01-1.24,3.02,17.49.01,37.66,1.8,53.67,1.15-.05-.38-.09-.75-.14-1.13Z"/>
  <path class="cls-1" d="M207.72,206.72l-1.12,2.03-1.49-.68-.75.68c-2.23-2.27-4.38.46-5.23.68-1.43.36-3.59.23-4.48,0-1.9-.49-2.35,1.19-2.99,1.35-1.06.26-2.88-.18-4.11,0-.3-2.52,0-1.58,1.12-2.03.32-.13.48-.62.75-.68,1.25-.24,3.09.16,4.48,0,2.26-.26,5.97-1.15,8.22-1.35,1.8-.16,3.78.11,5.6,0Z"/>
</svg>